<svg width="71" height="24" viewBox="0 0 71 24" fill="none" xmlns="http://www.w3.org/2000/svg">
<path d="M65.0422 0H4.78293C4.372 0 4.01961 0.0585366 3.6081 0.117073C3.19717 0.176195 2.84478 0.293854 2.49239 0.470049C2.14 0.645658 1.84615 0.880976 1.55288 1.17483C1.25903 1.4681 1.0243 1.76195 0.848101 2.11434C0.677624 2.46742 0.558751 2.84316 0.495125 3.23005C0.436588 3.64156 0.378052 4.05249 0.378052 4.40488V19.0291C0.378052 19.4406 0.436588 19.793 0.495125 20.2039C0.554247 20.6148 0.671905 20.9672 0.848101 21.3196C1.02371 21.7311 1.25903 22.0244 1.55288 22.3182C1.84615 22.6121 2.14 22.8468 2.49239 23.023C2.84219 23.2015 3.21924 23.3206 3.6081 23.3754C4.01961 23.434 4.372 23.4925 4.78293 23.4925H66.2171C66.628 23.4925 66.9804 23.434 67.3919 23.3754C67.7808 23.3206 68.1578 23.2015 68.5076 23.023C68.86 22.8474 69.1539 22.6121 69.4471 22.3182C69.741 22.0244 69.9757 21.7311 70.1519 21.3787C70.3305 21.0288 70.4496 20.6515 70.5043 20.2624C70.5634 19.8515 70.6219 19.4991 70.6219 19.0882V18.5596V5.57971V4.93346V4.40488C70.6219 3.99395 70.5634 3.64156 70.5043 3.23005C70.4496 2.84117 70.3305 2.46411 70.1519 2.11434C69.9757 1.76195 69.741 1.4681 69.4471 1.17483C69.1539 0.880976 68.86 0.646244 68.5076 0.470049C68.1578 0.291375 67.7808 0.172091 67.3919 0.117073C66.9804 0.0585366 66.628 0 66.2171 0H65.0422Z" fill="#B7B7B7"/>
<path d="M5.3115 22.9646H4.78291C4.43052 22.9646 4.07813 22.9646 3.66721 22.8475C3.32494 22.7849 2.99022 22.6864 2.66857 22.5537C2.37472 22.3775 2.08145 22.2013 1.84613 21.966C1.61199 21.7318 1.37667 21.4374 1.25901 21.1441C1.0834 20.8503 1.02428 20.5564 0.965157 20.1455C0.90662 19.7346 0.848083 19.3231 0.848083 19.0298V4.93359V4.405C0.848083 4.11174 0.848084 3.70022 0.965157 3.2893C1.08282 2.99544 1.14135 2.64305 1.31755 2.34978C1.49374 2.05593 1.66994 1.76208 1.90525 1.52735C2.13999 1.29261 2.43384 1.11642 2.72711 0.940224C3.02096 0.764029 3.37335 0.704907 3.72574 0.64637C4.07813 0.529297 4.48906 0.529297 4.78291 0.529297H66.2171C66.5109 0.529297 66.9218 0.529297 67.3328 0.64637C67.6852 0.704907 67.979 0.822565 68.3314 0.940224C68.6253 1.11583 68.9185 1.29261 69.1538 1.52735C69.3886 1.76208 69.6233 2.05593 69.741 2.34978C69.9172 2.64305 69.9757 2.99544 70.0348 3.2893C70.0933 3.64169 70.1519 4.05261 70.1519 4.405V19.0304C70.1519 19.3828 70.0933 19.7352 70.0348 20.1461C69.9721 20.4883 69.8736 20.823 69.741 21.1447C69.5648 21.438 69.3886 21.7318 69.1538 21.9666C68.9185 22.2019 68.6253 22.4366 68.3314 22.5543C68.0375 22.7299 67.7443 22.789 67.3328 22.8475C66.9804 22.9061 66.5694 22.9061 66.2171 22.9652L5.3115 22.9646Z" fill="#000001"/>
<path d="M14.9437 11.9222C14.9437 10.2773 16.2947 9.51398 16.3533 9.45545C15.5899 8.33916 14.4151 8.22208 14.0042 8.16296C13.0056 8.04589 12.066 8.75067 11.5375 8.75067C11.0089 8.75067 10.245 8.16296 9.42312 8.16296C8.36595 8.16296 7.36731 8.8092 6.78019 9.7493C5.6639 11.6869 6.48634 14.6236 7.60205 16.2094C8.13063 16.9733 8.77687 17.8543 9.59931 17.8543C10.4212 17.7957 10.715 17.3257 11.7137 17.3257C12.7117 17.3257 12.947 17.8543 13.828 17.8543C14.709 17.8543 15.2376 17.0904 15.7656 16.2679C16.4118 15.3875 16.6471 14.506 16.6471 14.4474C16.6471 14.506 14.9437 13.8603 14.9437 11.9222ZM13.2994 7.16491C13.7103 6.63633 14.0627 5.87242 13.9451 5.10911C13.2994 5.10911 12.5355 5.52003 12.066 6.10774C11.6545 6.5772 11.3021 7.34111 11.4198 8.10442C12.1246 8.10442 12.8885 7.6935 13.2994 7.16491ZM25.2221 15.915H22.4616L21.8153 17.9122H20.6405L23.2834 10.6291H24.4582L27.1012 17.9122H25.9269L25.2221 15.915ZM22.7548 15.034H24.9868L23.8711 11.8039H23.8126L22.7548 15.034ZM32.7985 15.2687C32.7985 16.9136 31.9176 17.9708 30.5665 17.9708C29.8032 17.9708 29.2155 17.6184 28.9217 17.0313V19.6742H27.8059V12.6264H28.8631V13.5074C29.157 12.9196 29.8032 12.5673 30.5665 12.5673C31.8584 12.5087 32.7985 13.6244 32.7985 15.2687ZM31.6237 15.2687C31.6237 14.2121 31.0951 13.5068 30.2141 13.5068C29.3917 13.5068 28.8046 14.2115 28.8046 15.2687C28.8046 16.3259 29.3917 17.0307 30.2141 17.0307C31.0951 17.0307 31.6237 16.3259 31.6237 15.2687ZM38.613 15.2687C38.613 16.9136 37.732 17.9708 36.381 17.9708C35.6177 17.9708 35.0299 17.6184 34.7361 17.0313V19.6742H33.621V12.6264H34.6781V13.5074C34.972 12.9196 35.6182 12.5673 36.3816 12.5673C37.7326 12.5087 38.613 13.6244 38.613 15.2687ZM37.4967 15.2687C37.4967 14.2121 36.9681 13.5068 36.0871 13.5068C35.2653 13.5068 34.6776 14.2115 34.6776 15.2687C34.6776 16.3259 35.2653 17.0307 36.0871 17.0307C36.9681 17.0307 37.4967 16.3259 37.4967 15.2687ZM42.4893 15.8564C42.5478 16.5612 43.2526 17.0313 44.2512 17.0313C45.1907 17.0313 45.837 16.5612 45.837 15.915C45.837 15.3278 45.4255 15.034 44.4859 14.7993L43.5464 14.5645C42.1954 14.2121 41.6083 13.6244 41.6083 12.6264C41.6083 11.3924 42.724 10.5114 44.2512 10.5114C45.7778 10.5114 46.8356 11.3924 46.8941 12.6264H45.7778C45.7193 11.9216 45.1322 11.4515 44.2512 11.4515C43.3702 11.4515 42.7831 11.9216 42.7831 12.5673C42.7831 13.0958 43.194 13.3897 44.1336 13.6244L44.956 13.8006C46.4241 14.153 47.0703 14.7407 47.0703 15.7979C47.0703 17.1483 45.954 18.0293 44.2512 18.0293C42.6063 18.0293 41.5498 17.2074 41.4906 15.8564H42.4893ZM49.3023 11.3345V12.5678H50.3004V13.4488H49.3029V16.3856C49.3029 16.8551 49.4785 17.0313 49.9486 17.0313H50.301V17.9122C50.1839 17.9708 49.9486 17.9708 49.7138 17.9708C48.6567 17.9708 48.2458 17.5598 48.2458 16.5618V13.5074H47.4818V12.6264H48.2458V11.393H49.3029L49.3023 11.3345ZM50.9466 15.2693C50.9466 13.6244 51.9453 12.5673 53.4719 12.5673C54.9991 12.5673 55.9977 13.6244 55.9977 15.2693C55.9977 16.9727 54.9991 17.9708 53.4719 17.9708C51.8861 17.9708 50.9466 16.9136 50.9466 15.2693ZM54.8815 15.2693C54.8815 14.0945 54.3529 13.4488 53.4719 13.4488C52.5909 13.4488 52.0623 14.0945 52.0623 15.2693C52.0623 16.4435 52.5909 17.0898 53.4719 17.0898C54.3529 17.0898 54.8815 16.385 54.8815 15.2693ZM56.8787 12.5678H57.9359V13.5074C58.1115 12.9196 58.5816 12.5673 59.2278 12.5673C59.404 12.5673 59.5217 12.5673 59.5802 12.6258V13.6244C59.5217 13.5659 59.2863 13.5659 59.1101 13.5659C58.4054 13.5659 57.9944 14.0359 57.9944 14.7993V17.9708H56.8787V12.5678ZM64.6313 16.3259C64.5137 17.266 63.5156 17.9708 62.3408 17.9708C60.8136 17.9708 59.8155 16.9136 59.8155 15.2693C59.8155 13.6244 60.755 12.5087 62.2822 12.5087C63.7503 12.5087 64.6898 13.5074 64.6898 15.1516V15.504H60.9312V15.5626C60.9312 16.4441 61.5183 17.0904 62.3408 17.0904C62.9279 17.0904 63.3979 16.7965 63.5741 16.3265H64.6313V16.3259ZM60.9312 14.7407H63.5741C63.5741 13.9183 63.0456 13.3897 62.2822 13.3897C61.5183 13.3897 60.9897 13.9774 60.9312 14.7407ZM22.5786 5.11086C23.6358 5.11086 24.2235 5.75711 24.2235 6.87281C24.2235 7.98852 23.6358 8.63477 22.5786 8.63477H21.2873V5.11086H22.5786ZM21.8738 8.16472H22.5201C23.2249 8.16472 23.6949 7.69525 23.6949 6.93135C23.6949 6.16803 23.2834 5.69798 22.5201 5.69798H21.8738V8.16472ZM24.8698 7.28316C24.8698 6.40218 25.3392 5.93213 26.1025 5.93213C26.8664 5.93213 27.3359 6.46072 27.3359 7.28316C27.3359 8.16413 26.8664 8.63418 26.1025 8.63418C25.3392 8.69272 24.8698 8.16413 24.8698 7.28316ZM26.8073 7.28316C26.8073 6.69603 26.5732 6.40218 26.1025 6.40218C25.6331 6.40218 25.3978 6.75457 25.3978 7.28316C25.3978 7.87028 25.6331 8.22267 26.1025 8.22267C26.5726 8.22267 26.8073 7.87028 26.8073 7.28316ZM30.6842 8.63418H30.1556L29.627 6.69662H29.5685L29.0393 8.63418H28.5107L27.8059 5.99184H28.3345L28.8046 7.98852H28.8631L29.3917 5.99184H29.9203L30.4489 7.98852H30.5074L30.9775 5.99184H31.506L30.6842 8.63477V8.63418ZM32.0346 5.99125H32.5632V6.40218H32.6217C32.7394 6.10833 33.0333 5.93213 33.3857 5.93213C33.9728 5.93213 34.3252 6.28452 34.3252 6.93077V8.63418H33.7966V7.04784C33.7966 6.63691 33.621 6.40218 33.2095 6.40218C32.7979 6.40218 32.5632 6.63691 32.5632 7.04842V8.57506H32.0346V5.99125ZM35.0891 4.93467H35.6177V8.63418H35.0891V4.93467ZM36.3218 7.28316C36.3218 6.40218 36.7919 5.93213 37.5558 5.93213C38.3191 5.93213 38.7892 6.46072 38.7892 7.28316C38.7892 8.16413 38.3191 8.63418 37.5558 8.63418C36.7919 8.69272 36.3218 8.16413 36.3218 7.28316ZM38.3191 7.28316C38.3191 6.69603 38.0844 6.40218 37.6143 6.40218C37.1443 6.40218 36.9096 6.75457 36.9096 7.28316C36.9096 7.87028 37.1443 8.22267 37.6143 8.22267C38.0253 8.22267 38.3191 7.87028 38.3191 7.28316ZM39.3763 7.87028C39.3763 7.40081 39.7287 7.10696 40.3749 7.10696L41.0797 7.04842V6.81311C41.0797 6.51984 40.9035 6.40218 40.5511 6.40218C40.2573 6.40218 40.0811 6.51925 40.0225 6.69603H39.4939C39.5525 6.22598 39.9634 5.93213 40.5511 5.93213C41.1968 5.93213 41.6083 6.28452 41.6083 6.81311V8.63359H41.0797V8.28179H41.0212C40.8444 8.57506 40.5511 8.69272 40.1987 8.69272C40.09 8.69536 39.9819 8.6759 39.8809 8.63551C39.7799 8.59511 39.6882 8.53463 39.6113 8.45773C39.5344 8.38082 39.4739 8.2891 39.4335 8.18812C39.3931 8.08714 39.3736 7.979 39.3763 7.87028ZM41.0797 7.63555V7.40081L40.4335 7.45935C40.0811 7.45935 39.9049 7.63555 39.9049 7.81174C39.9049 8.04647 40.1396 8.16413 40.3749 8.16413C40.7859 8.22267 41.0797 7.98794 41.0797 7.63555ZM42.2539 7.28374C42.2539 6.4613 42.6655 5.93272 43.3702 5.93272C43.7226 5.93272 44.0159 6.10833 44.1921 6.40276H44.2506V4.93408H44.7798V8.63418H44.2512V8.22325H44.1927C44.1097 8.36759 43.9898 8.48723 43.8452 8.56984C43.7007 8.65245 43.5367 8.69507 43.3702 8.6933C42.724 8.6933 42.2539 8.16472 42.2539 7.28374ZM42.8417 7.28374C42.8417 7.87086 43.1349 8.16472 43.5464 8.16472C43.9574 8.16472 44.2512 7.81233 44.2512 7.28374C44.2512 6.75516 43.9574 6.40276 43.5464 6.40276C43.0764 6.40276 42.8417 6.75516 42.8417 7.28374ZM46.8941 7.28316C46.8941 6.40218 47.3636 5.93213 48.1275 5.93213C48.8908 5.93213 49.3609 6.46072 49.3609 7.28316C49.3609 8.16413 48.8908 8.63418 48.1275 8.63418C47.3636 8.69272 46.8941 8.16413 46.8941 7.28316ZM48.8908 7.28316C48.8908 6.69603 48.6561 6.40218 48.186 6.40218C47.7166 6.40218 47.4813 6.75457 47.4813 7.28316C47.4813 7.87028 47.716 8.22267 48.186 8.22267C48.5976 8.22267 48.8908 7.87028 48.8908 7.28316ZM50.1242 5.99125H50.6528V6.40218H50.7113C50.829 6.10833 51.1228 5.93213 51.4752 5.93213C52.0623 5.93213 52.4147 6.28452 52.4147 6.93077V8.63418H51.8861V7.04784C51.8861 6.63691 51.7105 6.40218 51.299 6.40218C50.8875 6.40218 50.6528 6.63691 50.6528 7.04842V8.57506H50.1242V5.99125ZM55.293 5.34442V5.99067H55.8801V6.46072H55.293V7.81174C55.293 8.10559 55.41 8.22267 55.6454 8.22267H55.821V8.63418H55.5277C54.9406 8.63418 54.7053 8.45798 54.7053 7.9294V6.46072H54.2943V6.04979H54.7053V5.34442H55.293ZM56.5849 4.93467H57.1135V6.40276H57.172C57.2897 6.10891 57.5835 5.93272 57.9944 5.93272C58.5816 5.93272 58.9339 6.28511 58.9339 6.93135V8.63477H58.4054V7.04842C58.4054 6.6375 58.2298 6.40276 57.8182 6.40276C57.4073 6.40276 57.172 6.69603 57.172 7.04842V8.57564H56.6434V4.93467H56.5849ZM61.9293 7.9294C61.8122 8.39886 61.4007 8.69272 60.755 8.69272C59.9911 8.69272 59.5217 8.16413 59.5217 7.34169C59.5217 6.51984 59.9911 5.93213 60.755 5.93213C61.5183 5.93213 61.9293 6.46072 61.9293 7.28316V7.45935H60.0502C60.0502 7.9294 60.3435 8.22267 60.755 8.22267C61.0483 8.22267 61.2836 8.10559 61.4007 7.9294H61.9293ZM60.0502 7.04842H61.4007C61.4007 6.63691 61.1074 6.34364 60.755 6.34364C60.3435 6.40218 60.1088 6.63691 60.0502 7.04842Z" fill="white"/>
</svg>
